<svg xmlns="http://www.w3.org/2000/svg" viewBox="0 0 26 26"><defs><style>.\33 1224d0b-c327-4ac8-a854-5345a1d157b2{fill:#7d8590}</style></defs><g id="55e5bdd0-5112-47eb-95ff-60dd6901323c" data-name="Layer 2"><g id="50adef89-0001-4eda-a1c2-ff1fef405ee2" data-name="Layer 1"><path d="M13 2A11 11 0 1 1 2 13 11 11 0 0 1 13 2m0-2a13 13 0 1 0 13 13A13 13 0 0 0 13 0z" class="31224d0b-c327-4ac8-a854-5345a1d157b2"/><path d="M13 13a4 4 0 1 1 4-4 4 4 0 0 1-4 4zm0-6a2 2 0 1 0 2 2 2 2 0 0 0-2-2zM19 19a1 1 0 0 1-.83-.45L16.46 16H9.54l-1.7 2.55a1 1 0 1 1-1.66-1.11l2-3A1 1 0 0 1 9 14h8a1 1 0 0 1 .83.45l2 3A1 1 0 0 1 19 19z" class="31224d0b-c327-4ac8-a854-5345a1d157b2"/></g></g></svg>