<svg xmlns="http://www.w3.org/2000/svg" viewBox="0 0 9.84 15.95"><defs><style>.\30 6a00757-99a4-4fd1-9c85-da633266066f{fill:#9f9fa0}</style></defs><g id="9fde90b8-30bb-4c5a-b061-028ef309c04f" data-name="Layer 2"><path id="6dbd98b6-c7fa-4ee1-93df-fb0a4c302c9e" d="M9.13 2.66a3.76 3.76 0 0 0-2.57-1.14c-2.46 0-2.9 2.2-3.08 4.2h5L8 7H3.39v1.21h4.27L7.2 9.57H3.39c.07 2 .42 4.88 3.06 4.88a4.94 4.94 0 0 0 3.17-1.36V15a5.73 5.73 0 0 1-3.33 1c-3.89 0-4.75-3.1-4.93-6.38H0l.48-1.37h.86L1.36 7H0l.46-1.28h1C1.72 2.64 2.95 0 6.47 0a5.76 5.76 0 0 1 3.37 1.1z" class="06a00757-99a4-4fd1-9c85-da633266066f" data-name="Layer 1"/></g></svg>