<svg xmlns="http://www.w3.org/2000/svg" viewBox="0 0 26 26"><defs><style>.c58c24af-ad65-4bea-a3f6-014070b2cae9{fill:#7d8590}</style></defs><g id="db605321-39f3-4352-bcf2-863b1eeb9130" data-name="Layer 2"><g id="8ff17d13-feb6-42d5-be3e-8238cbf56cf8" data-name="Layer 1"><path d="M13 2A11 11 0 1 1 2 13 11 11 0 0 1 13 2m0-2a13 13 0 1 0 13 13A13 13 0 0 0 13 0z" class="c58c24af-ad65-4bea-a3f6-014070b2cae9"/><path d="M17 18a1 1 0 0 1-.71-.29l-8-8a1 1 0 0 1 1.42-1.42l8 8A1 1 0 0 1 17 18z" class="c58c24af-ad65-4bea-a3f6-014070b2cae9"/><path d="M9 18a1 1 0 0 1-.71-1.71l8-8A1 1 0 0 1 17.7 9.7l-8 8a1 1 0 0 1-.7.3z" class="c58c24af-ad65-4bea-a3f6-014070b2cae9"/></g></g></svg>