<svg xmlns="http://www.w3.org/2000/svg" width="9" height="15.89" viewBox="0 0 9 15.89"><defs><style>.\32 c767494-9483-4c13-8b84-623d263440ad{fill:#1a4a83;}</style></defs><title>Asset 2</title><g id="eed99b15-de47-4183-8126-9dffcab04462" data-name="Layer 2"><g id="6c92be2f-c306-4ac3-8eae-31fbaf5aab4a" data-name="Layer 1"><path class="2c767494-9483-4c13-8b84-623d263440ad" d="M0,5V4.53C0,1.89,1.45,0,4.36,0,7.44,0,9,1.67,9,4.25A4.82,4.82,0,0,1,7.61,7.68l-.88,1A3.26,3.26,0,0,0,5.66,11.2v.33H2.93v-.86A4.57,4.57,0,0,1,4.29,7.22l.84-.95A3.29,3.29,0,0,0,6,3.94c0-1.12-.51-1.87-1.5-1.87s-1.56,1-1.56,2.42V5ZM5.81,13v2.9h-3V13Z"/></g></g></svg>